<svg width="58" height="58" viewBox="0 0 58 58" fill="none" xmlns="http://www.w3.org/2000/svg">
<rect width="58" height="58" rx="10" fill="#F5571A"/>
<g clip-path="url(#clip0_2088_76)">
<path d="M35.2152 18.7215C31.875 19.5985 30.7141 22.4744 30.9072 23.6762C30.9684 23.6393 31.0283 23.6036 31.0902 23.565C31.3837 23.385 31.7032 23.2146 32.0347 23.0389C32.3642 22.8621 32.7191 22.6981 33.0764 22.5317C33.2562 22.4478 33.4446 22.3742 33.631 22.2983L33.9119 22.1838C34.033 22.1362 34.1076 22.1166 34.2074 22.0817L34.7706 21.8943C34.9663 21.8384 35.1607 21.7838 35.3531 21.7292C35.7424 21.6217 36.1186 21.5269 36.4846 21.4513C37.2162 21.2849 37.9038 21.1638 38.4955 21.0722C39.6804 20.8918 40.4878 20.8576 40.4878 20.8576C40.4878 20.8576 40.3035 20.9368 39.9799 21.0749C39.6551 21.21 39.1918 21.3891 38.634 21.6034C38.3531 21.7056 38.0516 21.8167 37.7321 21.9339C37.4119 22.0477 37.0737 22.1668 36.725 22.2903C36.3795 22.4121 36.0247 22.5392 35.662 22.6687C35.3072 22.7885 34.937 22.9303 34.5657 23.0727C34.2195 23.2022 33.8601 23.3746 33.5073 23.5144C33.1572 23.6738 32.5568 23.8825 32.2173 24.0276C31.8079 24.1994 31.5489 24.2922 31.2887 24.43C28.3749 26.1304 27.0839 29.1404 26.2964 32.3255C26.1566 29.3335 25.5289 26.4306 23.3689 24.2896C23.3709 24.2882 23.3738 24.2876 23.3759 24.2859C23.0834 24.012 22.7795 23.7175 22.4666 23.4019C22.2097 23.137 21.9381 22.8737 21.6739 22.5929C21.4026 22.3286 21.136 22.0328 20.8641 21.7805C20.5743 21.5066 20.288 21.2353 20.0051 20.9877C19.7195 20.7314 19.4403 20.4785 19.1681 20.2332C18.8922 19.9859 18.6256 19.7473 18.3733 19.5196C18.1234 19.2893 17.8847 19.0709 17.6668 18.8693C17.2324 18.4596 16.8713 18.1161 16.6237 17.8671C16.3784 17.6159 16.2386 17.4721 16.2386 17.4721C16.2386 17.4721 16.9708 17.8122 17.9973 18.431C18.5091 18.7418 19.0979 19.1159 19.7116 19.5489C20.0208 19.7596 20.3323 19.9906 20.6508 20.2379C20.8076 20.3627 20.967 20.4868 21.1251 20.6123L21.5744 21.0006C21.6533 21.0716 21.7149 21.1171 21.8081 21.208L22.0251 21.4213C22.1695 21.5631 22.3147 21.7036 22.4481 21.8487C22.7173 22.1383 22.9806 22.4261 23.2186 22.715C23.4575 23.0039 23.6875 23.2835 23.8899 23.5618C23.9328 23.6217 23.9731 23.6763 24.016 23.7342C24.6547 22.6974 24.6796 19.5958 21.9262 17.5094C18.9279 15.2395 14.7496 16.258 13 15.4182C14.7666 18.1207 14.4274 19.925 17.3953 22.8907C19.3785 24.875 21.2307 24.9978 22.4784 24.6527C25.0162 27.0956 25.4123 30.8198 25.4136 34.3837C25.154 34.1734 24.8385 34.0083 24.4744 34.0083C23.4473 34.0083 22.6994 34.586 22.3409 35.4102C20.0801 34.6407 18.5784 36.4292 18.4483 37.9356C17.3726 37.5356 16.008 38.7729 16.008 39.848C16.008 40.9098 16.847 41.769 17.8981 41.8137L34.5402 41.843C34.5402 41.843 36.3134 40.8871 36.3134 39.8474C36.3134 38.7577 35.4301 37.873 34.3405 37.873C34.1894 37.873 34.0449 37.893 33.9051 37.9249C33.9144 37.8484 33.7148 34.4975 30.8032 35.8434C30.5769 34.795 30.28 34.0083 28.5307 34.0083C27.6691 34.0083 27.0856 34.3212 26.7122 34.6393C27.4408 30.9329 28.5667 27.0609 31.8483 25.1456C31.8843 25.1253 31.9029 25.098 31.9282 25.0734C32.9426 25.8871 34.7159 26.5158 37.3479 25.4228C41.2219 23.8136 41.5967 22.017 44.2612 20.1942C42.3256 20.3027 38.8523 17.767 35.2152 18.7215ZM26.1458 35.2631L26.2546 35.1539C26.1997 35.2391 26.1661 35.3011 26.1661 35.3011C26.1661 35.3011 26.1551 35.2797 26.1458 35.2631Z" fill="white"/>
</g>
<defs>
<clipPath id="clip0_2088_76">
<rect width="31.2613" height="31.2613" fill="white" transform="translate(13 13)"/>
</clipPath>
</defs>
</svg>
