<svg width="58" height="58" viewBox="0 0 58 58" fill="none" xmlns="http://www.w3.org/2000/svg">
<rect width="58" height="58" rx="10" fill="#7E20D0"/>
<g clip-path="url(#clip0_2088_102)">
<path d="M22.0883 35.1836L23.2437 32.9689C23.7252 32.0061 24.6881 31.332 25.8436 31.332H29.2137C29.31 31.332 29.4062 31.332 29.4062 31.332C31.1395 29.0211 33.9318 27.4805 37.1094 27.4805C38.2648 27.4805 39.324 27.673 40.3832 28.0582C39.998 27.4805 39.5166 26.9027 39.0352 26.5176H39.998C40.5758 26.5176 40.9609 26.1324 40.9609 25.5547C40.9609 24.977 40.5758 24.5918 39.998 24.5918H37.302L36.1465 21.7031C35.3762 19.9699 33.643 18.8145 31.7172 18.8145H23.2437C21.318 18.8145 19.5848 19.9699 18.8145 21.7031L17.5627 24.5918H14.9629C14.3852 24.5918 14 24.977 14 25.5547C14 26.1324 14.3852 26.5176 14.9629 26.5176H15.9258C14.7703 27.3842 14 28.8285 14 30.3691V34.2207C14 35.0873 14.3852 35.8576 14.9629 36.3391V38.0723C14.9629 39.7092 16.2146 40.9609 17.8516 40.9609H19.7773C21.4143 40.9609 22.666 39.7092 22.666 38.0723V37.1094H27.4805C27.4805 36.4354 27.5768 35.7613 27.673 35.1836H22.0883ZM20.7402 32.2949H17.8516C17.2738 32.2949 16.8887 31.9098 16.8887 31.332C16.8887 30.7543 17.2738 30.3691 17.8516 30.3691H20.7402C21.318 30.3691 21.7031 30.7543 21.7031 31.332C21.7031 31.9098 21.318 32.2949 20.7402 32.2949ZM19.2959 25.5547L20.6439 22.4734C21.1254 21.4143 22.0883 20.7402 23.2437 20.7402H31.6209C32.7764 20.7402 33.8355 21.4143 34.317 22.4734L35.665 25.5547H19.2959Z" fill="white"/>
<path d="M44.5236 35.0873C44.4273 34.6059 43.8496 34.317 43.3682 34.4133C42.6941 34.6059 42.2127 34.4133 42.1164 34.2207C42.0201 34.0281 42.1164 33.5467 42.5979 32.9689C42.983 32.5838 42.983 32.0061 42.5979 31.6209C41.635 30.658 40.4795 29.984 39.1314 29.5988C38.65 29.5025 38.0723 29.7914 37.976 30.2729C37.7834 30.9469 37.3982 31.2357 37.1094 31.2357C36.8205 31.2357 36.5316 30.8506 36.2428 30.2729C36.0502 29.7914 35.5687 29.5025 35.0873 29.5988C33.7393 29.984 32.5838 30.658 31.6209 31.6209C31.2357 32.0061 31.2357 32.5838 31.6209 32.9689C32.1023 33.4504 32.1986 33.9318 32.1023 34.2207C32.0061 34.4133 31.5246 34.6059 30.8506 34.4133C30.3691 34.317 29.7914 34.6059 29.6951 35.0873C29.5025 35.7613 29.4062 36.4354 29.4062 37.1094C29.4062 37.7834 29.5025 38.4574 29.6951 39.1314C29.7914 39.6129 30.3691 39.9018 30.8506 39.8055C31.5246 39.6129 32.0061 39.8055 32.1023 39.998C32.1986 40.1906 32.1023 40.6721 31.6209 41.2498C31.2357 41.635 31.2357 42.2127 31.6209 42.5979C32.5838 43.5607 33.7393 44.2348 35.0873 44.6199C35.5687 44.7162 36.1465 44.4273 36.2428 43.9459C36.4354 43.2719 36.8205 42.983 37.1094 42.983C37.3982 42.983 37.6871 43.3682 37.976 43.9459C38.0723 44.3311 38.4574 44.6199 38.9389 44.6199C39.0352 44.6199 39.1314 44.6199 39.2277 44.6199C40.5758 44.2348 41.7312 43.5607 42.6941 42.5979C43.0793 42.2127 43.0793 41.635 42.6941 41.2498C42.2127 40.7684 42.1164 40.2869 42.2127 39.998C42.309 39.8055 42.7904 39.6129 43.4645 39.8055C43.9459 39.9018 44.5236 39.6129 44.6199 39.1314C44.8125 38.4574 44.9088 37.7834 44.9088 37.1094C44.9088 36.4354 44.7162 35.7613 44.5236 35.0873ZM37.1094 39.998C35.4725 39.998 34.2207 38.7463 34.2207 37.1094C34.2207 35.4725 35.4725 34.2207 37.1094 34.2207C38.7463 34.2207 39.998 35.4725 39.998 37.1094C39.998 38.7463 38.7463 39.998 37.1094 39.998Z" fill="white"/>
</g>
<defs>
<clipPath id="clip0_2088_102">
<rect width="30.8125" height="30.8125" fill="white" transform="translate(14 14)"/>
</clipPath>
</defs>
</svg>
