<svg width="58" height="58" viewBox="0 0 58 58" fill="none" xmlns="http://www.w3.org/2000/svg">
<rect width="58" height="58" rx="10" fill="#0B0C0F"/>
<path d="M25.6055 38.6812V20H19.5508C17.541 20 16.0316 20.4191 15.0225 21.2574C14.0049 22.0957 13.4961 23.3359 13.4961 24.9782C13.4961 25.8507 13.742 26.6248 14.2338 27.3006C14.7257 27.9678 15.3956 28.4853 16.2436 28.8531C15.243 29.1353 14.4543 29.6742 13.8777 30.4697C13.2926 31.2566 13 32.1975 13 33.2924C13 34.9689 13.5385 36.2862 14.6154 37.2442C15.6924 38.2022 17.2145 38.6812 19.1819 38.6812H25.6055ZM23.1633 29.9437V36.6668H19.131C17.9947 36.6668 17.1001 36.3717 16.4471 35.7815C15.7857 35.1828 15.455 34.3616 15.455 33.3181C15.455 31.0685 16.6676 29.9437 19.0929 29.9437H23.1633ZM23.1633 27.9678H19.4745C18.406 27.9678 17.5537 27.6983 16.9177 27.1594C16.2733 26.6205 15.951 25.8892 15.951 24.9654C15.951 23.939 16.2478 23.1948 16.8414 22.7329C17.435 22.2624 18.3381 22.0272 19.5508 22.0272H23.1633V27.9678Z" fill="white"/>
<path d="M33.5876 31.3678V38.6812H31.1453V20H37.976C40.0027 20 41.5884 20.5218 42.7332 21.5653C43.8865 22.6089 44.4631 23.9903 44.4631 25.7096C44.4631 27.523 43.8992 28.9215 42.7714 29.9052C41.652 30.8803 40.0451 31.3678 37.9505 31.3678H33.5876ZM33.5876 29.3535H37.976C39.2819 29.3535 40.2825 29.0455 40.9779 28.4297C41.6732 27.8052 42.0209 26.9071 42.0209 25.7352C42.0209 24.6233 41.6732 23.7337 40.9779 23.0665C40.2825 22.3993 39.3285 22.0529 38.1159 22.0272H33.5876V29.3535Z" fill="white"/>
</svg>
