<svg width="58" height="58" viewBox="0 0 58 58" fill="none" xmlns="http://www.w3.org/2000/svg">
<rect width="58" height="58" rx="10" fill="#0B0C0F"/>
<path d="M35.8287 23.937C35.4028 23.5073 34.9161 23.1423 34.3843 22.8538C30.3546 20.6151 25.2369 23.6915 25.2658 28.2989C25.2032 32.9064 30.3691 35.9828 34.3747 33.7393C37.9711 31.8857 38.7366 26.7535 35.8287 23.937ZM36.6664 28.2989C36.6664 28.4626 36.6664 28.6215 36.6664 28.7804H32.603L35.458 31.6354C35.2505 31.8738 35.0235 32.0944 34.7791 32.2949L31.9241 29.44V33.4985C31.6038 33.5274 31.2816 33.5274 30.9613 33.4985V29.4592L28.1063 32.2949C27.8599 32.0879 27.6327 31.8591 27.4275 31.6113L30.2824 28.7611H26.2431C26.2142 28.4408 26.2142 28.1185 26.2431 27.7982H30.2824L27.4275 24.9433C27.6327 24.6969 27.8599 24.4697 28.1063 24.2644L30.9613 27.1146V23.0993C31.2813 23.0656 31.604 23.0656 31.9241 23.0993V27.1338L34.7791 24.2837C35.0255 24.4889 35.2527 24.7162 35.458 24.9625L32.603 27.8175H36.6279C36.6568 27.9619 36.6664 28.1352 36.6664 28.2989Z" fill="white"/>
<path d="M39.998 19.941C29.1318 9.69588 13.3163 23.2871 22.045 35.665C20.715 35.371 19.4084 34.98 18.1356 34.4951C18.1532 34.35 18.14 34.2028 18.0969 34.0632C18.0538 33.9236 17.9818 33.7946 17.8855 33.6846C17.7892 33.5747 17.6708 33.4863 17.538 33.4252C17.4052 33.3641 17.2611 33.3317 17.115 33.33H16.465C16.1951 33.33 15.9363 33.4369 15.745 33.6273C15.5537 33.8176 15.4456 34.076 15.4443 34.3459V41.1246C15.4443 41.3953 15.5519 41.6549 15.7433 41.8464C15.9347 42.0377 16.1943 42.1453 16.465 42.1453H17.115C17.3528 42.1449 17.5829 42.0614 17.7658 41.9093C17.9486 41.7572 18.0726 41.5461 18.1164 41.3124C20.8693 41.982 23.6854 42.358 26.5176 42.4342C31.332 42.4342 36.5124 40.6865 39.844 36.9986C40.6156 36.1803 41.2643 35.2543 41.7698 34.2496V34.2255C44.3696 29.7529 43.7533 23.6289 39.998 19.941ZM17.115 41.1824H16.465C16.4497 41.1824 16.435 41.1763 16.4241 41.1655C16.4133 41.1546 16.4072 41.1399 16.4072 41.1246V34.3459C16.4072 34.3306 16.4133 34.3158 16.4241 34.305C16.435 34.2942 16.4497 34.2881 16.465 34.2881H17.115C17.1303 34.2881 17.145 34.2942 17.1558 34.305C17.1666 34.3158 17.1727 34.3306 17.1727 34.3459V41.1246C17.1727 41.1399 17.1666 41.1546 17.1558 41.1655C17.145 41.1763 17.1303 41.1824 17.115 41.1824ZM31.4428 35.3521C29.5749 35.3432 27.786 34.5973 26.4652 33.2765C25.1444 31.9556 24.3984 30.1668 24.3896 28.2989C24.7796 18.9444 38.1108 18.9444 38.4959 28.2989C38.4947 30.1692 37.7511 31.9624 36.4287 33.2849C35.1063 34.6073 33.313 35.3508 31.4428 35.3521Z" fill="white"/>
</svg>
