<svg width="58" height="58" viewBox="0 0 58 58" fill="none" xmlns="http://www.w3.org/2000/svg">
<rect width="58" height="58" rx="10" fill="#7E20D0"/>
<g clip-path="url(#clip0_2088_177)">
<path d="M39.5197 15L44.4631 23.6032H38.9407L35.1608 15H39.5197ZM32.5279 15L36.3079 23.6032H21.1553L24.9352 15H32.5279ZM17.9434 15H22.3024L18.5224 23.6032H13L17.9434 15ZM13 25.3238H18.5006L25.2193 38.8578C25.3012 39.0244 25.0718 39.175 24.9462 39.0352L13 25.3238ZM21.0952 25.3238H36.3679L28.8845 42.4335C28.8299 42.5625 28.6387 42.5625 28.5841 42.4335L21.0952 25.3238ZM32.2439 38.8578L38.9626 25.3238H44.4631L32.517 39.0298C32.3913 39.175 32.1619 39.0244 32.2439 38.8578Z" fill="white"/>
</g>
<defs>
<clipPath id="clip0_2088_177">
<rect width="31.4631" height="27.5302" fill="white" transform="translate(13 15)"/>
</clipPath>
</defs>
</svg>
