<?xml version="1.0" encoding="UTF-8"?>
<svg width="752pt" height="752pt" version="1.1" viewBox="0 0 752 752" xmlns="http://www.w3.org/2000/svg">
	<defs>
		<clipPath id="a">
			<path d="m139.21 139.21h473.58v473.58h-473.58z" />
		</clipPath>
	</defs>
	<path d="m37.602 0h676.8c20.766 0 37.602 20.766 37.602 37.602v676.8c0 20.766-16.836 37.602-37.602 37.602h-676.8c-20.766 0-37.602-20.766-37.602-37.602v-676.8c0-20.766 16.836-37.602 37.602-37.602z" fill="#000" />
	<g clip-path="url(#a)">
		<path d="m375.05 428.56-0.23047-0.17188c-0.57031-0.41406-0.78516-0.92578-1.0508-1.5039l-2.8398-6.1484c-0.67969-1.4805-0.050781-2.9805 1-4.3203 1.4883-1.9102 1.5156-1.3633 0.066407-3.293-0.35547-0.46484-0.35547-1.0156-0.015626-1.4883 0.34766-0.47266 0.94531-0.73828 1.6367-0.73828 2.1992 0.023437 4.3438 0.023437 6.5469 0 0.6875 0 1.2891 0.27344 1.6367 0.73828 0.33984 0.47266 0.33984 1.0195-0.015625 1.4883-1.4492 1.9297-1.4297 1.3828 0.066406 3.293 1.043 1.3398 1.6719 2.8398 0.99219 4.3203l-2.8398 6.1484c-0.25781 0.57812-0.47266 1.0859-1.043 1.5039l-0.23828 0.17188c-1.0273 0.76953-2.6328 0.76953-3.6719 0zm-201.7-289.35h405.3c18.965 0 34.141 15.488 34.141 34.141v405.3c0 18.965-15.176 34.141-34.141 34.141h-405.3c-18.656 0-34.141-15.176-34.141-34.141v-405.3c0-18.656 15.488-34.141 34.141-34.141zm203.28 28.453h171.35c6.6445 0 12.336 5.3789 12.336 12.016 0 6.957-5.6914 12.328-12.336 12.328h-171.35c-6.6367 0-12.008-5.3711-12.008-12.328 0-6.6367 5.3711-12.016 12.008-12.016zm-118.87-0.3125c6.957 0 12.336 5.3711 12.336 12.328 0 6.6367-5.3789 12.016-12.336 12.016-6.6367 0-12.016-5.3789-12.016-12.016 0-6.957 5.3789-12.328 12.016-12.328zm-33.512 0c6.6445 0 12.016 5.3711 12.016 12.328 0 6.6367-5.3711 12.016-12.016 12.016-6.9492 0-12.328-5.3789-12.328-12.016 0-6.957 5.3789-12.328 12.328-12.328zm-33.824 0c6.6367 0 12.016 5.3711 12.016 12.328 0 6.6367-5.3789 12.016-12.016 12.016-6.957 0-12.328-5.3789-12.328-12.016 0-6.957 5.3711-12.328 12.328-12.328zm370.84 51.844h-370.21c-4.1055 0-7.5859 3.4766-7.5859 7.5859v334.48c0 3.7969 3.4766 7.2734 7.5859 7.2734h370.21c3.7891 0 7.2734-3.4766 7.2734-7.2734v-334.48c0-4.1055-3.4766-7.5859-7.2734-7.5859zm-184.98 150.74c-0.82031-0.035156-1.6445-0.082032-5.2695-1.5156-3.625-1.4336-10.055-4.2773-16.457-6.2656-6.3945-1.9766-12.758-3.1172-16.707-3.6914-3.9453-0.58594-5.4766-0.62109-6.3203-0.37109-0.84375 0.25781-0.98438 0.80078-0.89453 1.457 0.089843 0.66406 0.41406 1.4219 1.1406 2.3672 0.73438 0.94531 1.8789 2.0781 2.9531 4.3516 1.0742 2.2773 2.0703 5.6992 2.8398 8.4375 0.76953 2.7305 1.2969 4.7734 2.5742 6.6172 1.2656 1.8359 3.2695 3.4688 5.7656 4.6758 2.5078 1.1992 5.5039 1.9609 8.6289 2.1328 3.1289 0.16406 6.3867-0.27344 8.8789-1.5469 2.5-1.2734 4.2539-3.3906 5.543-5.2227 1.2891-1.8438 2.1094-3.4102 3.2578-4.3438 1.1406-0.93359 2.6055-1.2227 3.3359-1.3633 0.91797-0.18359 0.54687-0.18359 1.4648 0 0.73828 0.14062 2.207 0.42969 3.3438 1.3633 1.1406 0.93359 1.9609 2.5 3.25 4.3438 1.2891 1.8359 3.043 3.9531 5.5352 5.2227 2.5078 1.2734 5.7656 1.7109 8.8867 1.5469 3.1289-0.17188 6.1328-0.93359 8.6367-2.1328 2.5-1.207 4.5-2.8398 5.7734-4.6758 1.2578-1.8438 1.7969-3.8867 2.5664-6.6172 0.76172-2.7383 1.7695-6.1562 2.8398-8.4375 1.0742-2.2734 2.2109-3.4023 2.9453-4.3516 0.73828-0.94531 1.0586-1.7031 1.1406-2.3672 0.097656-0.66016-0.050781-1.1992-0.88672-1.457-0.84375-0.25-2.375-0.21484-6.3281 0.37109-3.9531 0.57812-10.309 1.7109-16.699 3.6914-6.4023 1.9922-12.832 4.832-16.457 6.2656-3.625 1.4336-4.4531 1.4805-5.2773 1.5156zm11.848 114.02c-0.45312-3.5-0.875-6.8281-0.98437-7.6719-1.2266-9.7227-2.4062-19.195-2.7383-22.133l5.418-9.7148c0.28125-0.49609 0.33984-1.0352 0.17578-1.582-0.14844-0.55469-0.48047-0.96875-0.98438-1.2344l-1.8125-0.98438c-1.8516-1-3.7227-1.2969-5.7852-0.94141l-0.42188 0.082032c-3.2422 0.58594-6.0977 0.60547-9.3477 0.058594l-0.72656-0.10938c-2.2773-0.38672-4.3672 0.066407-6.3125 1.332l-1.0664 0.69531c-0.85938 0.5625-1.168 1.6875-0.71875 2.625l4.6836 9.7734-3.6562 29.398c-0.125 1.0586-0.97656 1.8516-2.043 1.9297-1.0664 0.074219-2.0273-0.59375-2.293-1.6289l-5.8477-22.406c-1.2891-4.668-0.48047-9.2422 2.3398-13.164l3.6172-5.0234c4.5156-6.3047 3.6992-14.961-1.9258-20.27-5.9805-5.6445-11.086-12.504-13.453-17.559-2.1914-4.6602-4.0195-10.945-5.4258-17.898-0.11719-0.61328-0.47266-1.1016-1.0273-1.3984-0.55469-0.29687-1.1406-0.32422-1.7148-0.074218l-0.18359 0.074218c-10.723 4.5742-20.488 7-32.07 7.9766l-12.219 1.0195 28.934 36.324c0.73828 0.92578 1.4492 1.8516 2.1328 2.7617-6.543 1.6445-13.082 3.2852-19.625 4.957-0.042969 0-0.042969 0.035156-0.042969 0.035156-9.7617 2.4844-19.566 5.0469-29.332 7.6797-9.6211-17.035-15.117-36.719-15.117-57.672 0-32.434 13.141-61.801 34.395-83.047 21.25-21.25 50.613-34.402 83.047-34.402s61.793 13.148 83.047 34.402c21.25 21.246 34.395 50.613 34.395 83.047 0 20.992-5.5117 40.707-15.16 57.762-9.7539-2.6328-19.535-5.1953-29.289-7.668 0 0 0-0.042969-0.050782-0.042969-6.3945-1.6367-12.793-3.2422-19.203-4.8633 0.73438-0.96875 1.4961-1.9531 2.2773-2.9531l28.934-36.324-12.219-1.0195c-11.582-0.97656-21.34-3.4023-32.062-7.9766l-0.18359-0.074218c-0.57812-0.25-1.1602-0.22266-1.7148 0.074218-0.55469 0.30469-0.91016 0.78516-1.0352 1.3984-1.3984 6.9492-3.2344 13.238-5.4258 17.898-2.3906 5.1133-7.3164 12.07-13.121 17.75-5.6602 5.543-6.1953 14.52-1.2266 20.711l3.2695 4.0781c3.3828 4.2266 4.3047 9.5156 2.5586 14.672l-7.3633 21.742c-0.33203 0.99219-1.2812 1.5977-2.3242 1.4961-1.0352-0.10547-1.8438-0.88672-1.9766-1.9258zm24.93-163.05c-2.7812-6.9688-7.6211-20.188-10.957-27.477-3.3672-7.3555-5.1953-8.6719-7.0586-9.2188-1.8555-0.54688-3.7383-0.32422-6.4688 0.87891-2.7148 1.207-6.2656 3.3945-8.8594 4.582-2.582 1.1758-4.2031 1.3477-5.8164 1.5156-1.6133-0.17188-3.2344-0.33984-5.8164-1.5156-2.582-1.1758-6.1328-3.375-8.8594-4.582-2.7227-1.2148-4.6016-1.4297-6.4688-0.87891-1.8633 0.54688-3.6914 1.8633-7.0508 9.2188-3.3359 7.2891-8.168 20.504-10.965 27.477 15.207 5.2383 27.215 7.8672 39.168 7.8672 11.949 0 23.961-2.625 39.16-7.8672zm9.6953 31.738c8.4219-1.8867 13.199-7.6523 16.191-11.145 2.9805-3.4844 3.6328-6.3945 3.6836-8.7852 0.058594-2.3906-0.48047-4.2539-2.7461-6.0898-2.2656-1.8359-6.2461-3.6562-10.434-4.8242-4.1875-1.1758-8.5781-1.7109-10.301-1.6875-1.7109 0.015624-0.75391 0.59375-0.23047 1.6562 0.52344 1.0586 0.61328 2.6133 0.25781 3.8867-0.35547 1.2656-1.1602 2.2578-1.8867 2.5312-0.51172 0.18359-0.98438 0.035156-2.168-2.4492-15.926 5.5195-28.535 8.2812-41.215 8.2812-12.676 0-25.293-2.7617-41.23-8.2891-1.1836 2.4922-1.6562 2.6484-2.1602 2.457-0.72656-0.27344-1.5312-1.2656-1.8945-2.5234-0.35547-1.2734-0.25781-2.8281 0.26562-3.8906 0.51953-1.0586 1.4883-1.6445-0.23047-1.6562-1.7227-0.023438-6.1211 0.51172-10.301 1.6875-4.1875 1.168-8.1758 2.9883-10.441 4.8242-2.2578 1.8359-2.7969 3.6992-2.7461 6.0898 0.058594 2.3906 0.70312 5.2969 3.6914 8.7852 2.9883 3.4922 7.8008 9.1328 16.184 11.145 29.324 7.0508 66.266 7.0508 97.715 0h-0.007813zm-66.625 46.492c0.74609 1.168 2.1523 1.6562 3.5156 1.5039l5.6758-0.66406c1.4961-0.16406 2.8047-0.54688 3.8164-1.6719l3.2031-3.5508c0.24609-0.27344 0.57031-0.34766 0.93359-0.42187l2.7305-0.51953c0.54688-0.097656 1.0273-0.10938 1.5742-0.007812l2.9062 0.52344c0.36328 0.074219 0.6875 0.14844 0.93359 0.42188l3.2031 3.5508c1.0156 1.125 2.3242 1.5039 3.8164 1.6719l5.6758 0.66406c1.3633 0.15625 2.7656-0.33203 3.5156-1.5039 1.3086-2.0781 2.6211-4.1602 3.9297-6.2539 0.46484-0.74609 0.82031-1.3086 1.7773-1.2422 0.52344 0.035156 0.46484 0.19141 0.26562 0.70312-0.28906 0.71875-0.95312 1.8516-1.332 2.6055-1.0938 2.1445-2.1914 4.293-3.2852 6.4453-0.87891 1.7383-2.6055 2.6797-4.5273 2.6797h-9.9453c-1.5078 0-2.8125-0.58594-3.832-1.7109l-2.8711-3.1758c-0.24609-0.27344-0.5625-0.41406-0.92578-0.41406s-0.67969 0.14062-0.93359 0.41406l-2.8633 3.1758c-1.0195 1.125-2.3242 1.7109-3.832 1.7109h-9.9453c-1.9258 0-3.6484-0.94141-4.5352-2.6797-0.59375-1.1758-1.1836-2.3398-1.7852-3.5-0.40625-0.80469-2.8477-5.4453-2.9453-5.8672-0.074219-0.32422-0.023437-0.36328 0.37891-0.37891 0.35547-0.023438 0.80469 0.023437 1.0586 0.27344 0.51172 0.52344 2.0586 3.1211 2.5742 3.9297 0.6875 1.1016 1.3828 2.1914 2.0703 3.2852zm19.875-146.08c-37.59 0-71.637 15.242-96.27 39.879-24.633 24.641-39.879 58.68-39.879 96.277 0 37.59 15.242 71.629 39.879 96.262 24.633 24.641 58.672 39.883 96.27 39.883 37.598 0 71.637-15.242 96.27-39.883 24.633-24.633 39.879-58.672 39.879-96.262 0-37.598-15.242-71.637-39.879-96.277-24.633-24.633-58.68-39.879-96.27-39.879z" fill-rule="evenodd"  fill="#fff" />
	</g>
</svg>
