<svg width="58" height="58" viewBox="0 0 58 58" fill="none" xmlns="http://www.w3.org/2000/svg">
<rect width="58" height="58" rx="10" fill="#00785E"/>
<g clip-path="url(#clip0_2088_129)">
<path d="M38.8713 26.7003L37.8751 27.2755C37.8689 27.2791 37.8627 27.2828 37.8566 27.2866L13.5268 42.6618C13.2822 42.8164 13.2033 43.1366 13.3479 43.3872L14.4983 45.3796C14.6429 45.6302 14.9597 45.7219 15.2159 45.5874L40.6961 32.2046C40.7024 32.2013 40.7087 32.1978 40.715 32.1942L41.7111 31.6191C42.518 31.1532 42.7954 30.1179 42.3296 29.3111L41.1792 27.3187C40.7134 26.5119 39.6781 26.2345 38.8713 26.7003ZM39.6984 31.5105L38.6149 32.0796L37.7696 30.6156C37.6207 30.3577 37.2909 30.2693 37.033 30.4182C36.7751 30.5671 36.6867 30.8969 36.8356 31.1548L37.6594 32.5815L15.1731 44.3917L14.5409 43.2966L37.959 28.4977C37.9613 28.5018 37.963 28.5061 37.9653 28.5101L39.6908 31.4987C39.6932 31.5029 39.696 31.5065 39.6984 31.5105ZM41.3957 29.8504C41.5642 30.1422 41.4638 30.5167 41.172 30.6852L40.6412 30.9916C40.636 30.9809 40.6309 30.9701 40.6248 30.9596L38.8994 27.971C38.8933 27.9605 38.8865 27.9507 38.8798 27.9408L39.4106 27.6344C39.7024 27.4659 40.0769 27.5662 40.2454 27.8581L41.3957 29.8504Z" fill="white"/>
<path d="M37.0531 19.9465C34.8073 18.4297 32.4851 16.8614 29.9843 12.5299C29.8354 12.272 29.5056 12.1836 29.2477 12.3325C28.9898 12.4814 28.9014 12.8112 29.0503 13.0691C31.6754 17.6159 34.1024 19.255 36.4494 20.8402C38.4731 22.2068 40.3844 23.4977 42.2376 26.7077C42.3865 26.9656 42.7163 27.054 42.9742 26.9051C43.2321 26.7562 43.3205 26.4264 43.1716 26.1685C41.194 22.7432 39.1826 21.3847 37.0531 19.9465Z" fill="white"/>
<path d="M33.8533 14.1952C33.6283 13.9064 33.4031 13.6006 33.1838 13.2862C33.0135 13.0421 32.6778 12.9823 32.433 13.1525C32.1888 13.3229 32.1289 13.659 32.2993 13.9032C32.5293 14.2331 32.7659 14.5543 33.0026 14.858C33.1699 15.0728 33.4676 15.1264 33.697 14.994C33.7184 14.9816 33.7392 14.9676 33.7593 14.9519C33.9943 14.7689 34.0363 14.4302 33.8533 14.1952Z" fill="white"/>
<path d="M37.6375 17.8218C36.7565 17.1833 36.033 16.5741 35.3608 15.9044C35.1498 15.6943 34.8085 15.6947 34.5982 15.9059C34.388 16.1169 34.3887 16.4583 34.5997 16.6685C35.3127 17.3789 36.0769 18.0229 37.0046 18.6952C37.1825 18.824 37.4124 18.8286 37.591 18.7255C37.6546 18.6887 37.7118 18.6383 37.7576 18.575C37.9325 18.3338 37.8787 17.9965 37.6375 17.8218Z" fill="white"/>
<path d="M31.3795 18.2084C31.1116 17.9418 30.8466 17.6596 30.5917 17.37C30.395 17.1464 30.0541 17.1248 29.8307 17.3214C29.6071 17.5181 29.5854 17.8588 29.7821 18.0824C30.0526 18.3899 30.3341 18.6894 30.6187 18.9727C30.7951 19.1484 31.0627 19.1766 31.2685 19.0578C31.3088 19.0345 31.3468 19.0056 31.3812 18.971C31.5913 18.7599 31.5905 18.4185 31.3795 18.2084Z" fill="white"/>
<path d="M39.0986 24.4074C37.7748 22.9299 36.395 21.998 35.0606 21.0969C34.44 20.6777 33.7983 20.2443 33.1585 19.7551C32.9219 19.5743 32.5835 19.6194 32.4026 19.856C32.2217 20.0925 32.2669 20.4309 32.5035 20.6118C33.1685 21.1203 33.8236 21.5628 34.4571 21.9906C35.796 22.8948 37.0607 23.7489 38.2955 25.1271C38.4688 25.3204 38.7501 25.3594 38.9663 25.2346C38.9981 25.2162 39.0285 25.1943 39.0569 25.1688C39.2787 24.97 39.2973 24.6291 39.0986 24.4074Z" fill="white"/>
</g>
<defs>
<clipPath id="clip0_2088_129">
<rect width="34.4375" height="34.4375" fill="white" transform="translate(1 22) rotate(-30)"/>
</clipPath>
</defs>
</svg>
