<svg width="58" height="58" viewBox="0 0 58 58" fill="none" xmlns="http://www.w3.org/2000/svg">
<rect width="58" height="58" rx="10" fill="#30343F"/>
<path d="M43.036 19.8014L29.5555 15.4684C29.4589 15.4347 29.3536 15.4347 29.257 15.4684L15.7765 19.8014C15.68 19.8329 15.5959 19.8941 15.5362 19.9762C15.4766 20.0584 15.4444 20.1573 15.4443 20.2588V42.8867C15.4443 43.0144 15.4951 43.1369 15.5853 43.2271C15.6756 43.3175 15.7981 43.3682 15.9258 43.3682H18.5448C18.6725 43.3682 18.795 43.3175 18.8853 43.2271C18.9755 43.1369 19.0263 43.0144 19.0263 42.8867V29.6373H39.7862V42.8867C39.7862 43.0144 39.837 43.1369 39.9272 43.2271C40.0175 43.3175 40.14 43.3682 40.2677 43.3682H42.8867C43.0144 43.3682 43.1369 43.3175 43.2271 43.2271C43.3174 43.1369 43.3682 43.0144 43.3682 42.8867V20.2588C43.3681 20.1573 43.3359 20.0584 43.2763 19.9762C43.2166 19.8941 43.1325 19.8329 43.036 19.8014ZM19.0263 25.1888H39.7862V26.4502H19.0263V25.1888ZM39.7862 22.9645V24.2259H19.0263V22.9645H39.7862ZM19.0263 28.6745V27.4131H39.7862V28.6745H19.0263Z" fill="white"/>
<path d="M38.5537 32.7186H36.469C36.371 32.7203 36.2763 32.7541 36.1994 32.8149L36.0502 32.1023C35.9107 31.5986 35.6084 31.1553 35.1902 30.8417C34.7721 30.5281 34.2618 30.3619 33.7392 30.3691H25.0732C24.5493 30.3663 24.0392 30.5372 23.6228 30.8552C23.2064 31.1732 22.9072 31.6202 22.7719 32.1264L22.6275 32.8149C22.5505 32.7541 22.4558 32.7203 22.3579 32.7186H20.2588C20.131 32.7186 20.0086 32.7693 19.9183 32.8596C19.828 32.9499 19.7773 33.0724 19.7773 33.2V34.5192C19.7758 34.6346 19.8158 34.7467 19.8901 34.835C19.9643 34.9234 20.0678 34.9822 20.1817 35.0006L22.1075 35.3184V35.4002C21.7267 35.5998 21.402 35.8916 21.1631 36.2491C20.9243 36.6066 20.7788 37.0182 20.7402 37.4464L20.5621 39.4299C20.5668 39.444 20.5668 39.4592 20.5621 39.4733V42.1068C20.5607 42.4367 20.6893 42.754 20.9198 42.99C21.1505 43.226 21.4646 43.3619 21.7946 43.3682H23.6963C23.8769 43.3655 24.0549 43.3248 24.2187 43.2487C24.3825 43.1726 24.5285 43.0628 24.647 42.9266C24.7656 42.7903 24.8541 42.6305 24.9068 42.4578C24.9595 42.285 24.9752 42.1031 24.9529 41.9238H33.8596C33.8372 42.1031 33.8529 42.285 33.9056 42.4578C33.9583 42.6305 34.0468 42.7903 34.1654 42.9266C34.2839 43.0628 34.4299 43.1726 34.5937 43.2487C34.7575 43.3248 34.9355 43.3655 35.1162 43.3682H37.042C37.3743 43.3682 37.6933 43.2364 37.9288 43.0018C38.1643 42.7672 38.2972 42.4488 38.2985 42.1164V41.4424C38.2985 41.4135 38.2985 39.5166 38.2985 39.4685C38.2985 39.4203 38.1204 37.4945 38.1252 37.4656C38.0896 37.0372 37.9471 36.6245 37.7107 36.2654C37.4744 35.9062 37.1517 35.6121 36.7723 35.4099V35.328L38.6981 35.0103C38.812 34.9918 38.9155 34.933 38.9898 34.8447C39.064 34.7563 39.104 34.6442 39.1025 34.5288V33.2C39.1032 33.1307 39.0889 33.0621 39.0606 32.9988C39.0323 32.9355 38.9907 32.8791 38.9386 32.8334C38.8865 32.7876 38.8251 32.7537 38.7587 32.7339C38.6923 32.7141 38.6223 32.7089 38.5537 32.7186ZM23.6963 32.3479C23.7806 32.0498 23.9616 31.7882 24.2109 31.6043C24.4601 31.4204 24.7635 31.3246 25.0732 31.332H33.7392C34.0427 31.3266 34.3397 31.4206 34.5848 31.5997C34.8299 31.7787 35.0098 32.033 35.0969 32.3238L35.6746 35.068H23.1474L23.6963 32.3479ZM37.3116 39.5166V42.1308C37.3116 42.1692 37.3039 42.2072 37.2891 42.2425C37.2743 42.2779 37.2526 42.3099 37.2252 42.3368C37.1979 42.3637 37.1655 42.3849 37.1299 42.3991C37.0943 42.4134 37.0562 42.4203 37.0179 42.4197H35.0921C34.8129 42.4197 34.7792 42.1501 34.7984 41.9383H35.3858C35.5135 41.9383 35.6359 41.8875 35.7262 41.7973C35.8165 41.707 35.8672 41.5845 35.8672 41.4568C35.8672 41.3291 35.8165 41.2067 35.7262 41.1164C35.6359 41.0261 35.5135 40.9754 35.3858 40.9754H32.4008V40.0847C32.4008 39.957 32.3501 39.8345 32.2598 39.7443C32.1695 39.654 32.0471 39.6033 31.9194 39.6033H26.8931C26.7654 39.6033 26.6429 39.654 26.5527 39.7443C26.4623 39.8345 26.4116 39.957 26.4116 40.0847V40.9609H23.4026C23.2749 40.9609 23.1524 41.0116 23.0622 41.102C22.9719 41.1922 22.9212 41.3147 22.9212 41.4424C22.9212 41.5701 22.9719 41.6925 23.0622 41.7828C23.1524 41.8731 23.2749 41.9238 23.4026 41.9238H23.99C23.99 42.1453 23.99 42.4053 23.6963 42.4053H21.7946C21.7562 42.4059 21.7181 42.3989 21.6825 42.3847C21.6469 42.3705 21.6145 42.3493 21.5872 42.3224C21.5598 42.2955 21.5381 42.2634 21.5233 42.2281C21.5085 42.1927 21.5008 42.1547 21.5009 42.1164V39.5166L21.6742 37.5571C21.707 37.1463 21.894 36.7632 22.1976 36.4846C22.5012 36.2059 22.899 36.0525 23.3111 36.055H35.5013C35.9134 36.0525 36.3112 36.2059 36.6148 36.4846C36.9184 36.7632 37.1054 37.1463 37.1382 37.5571L37.3116 39.5166Z" fill="white"/>
<path d="M35.6361 36.7724L33.1519 37.2538C32.9966 37.2842 32.8513 37.3524 32.7287 37.4524C32.6061 37.5523 32.51 37.6809 32.4489 37.8267C32.0975 38.6163 32.8774 39.5214 33.6959 39.4973H35.7998C37.6534 39.4588 37.5041 36.5894 35.6361 36.7724Z" fill="white"/>
<path d="M25.834 37.2731L23.3497 36.7916H23.2968C21.4624 36.6953 21.371 39.4925 23.186 39.5455H25.2899C26.561 39.5503 27.2398 37.6582 25.834 37.2731Z" fill="white"/>
</svg>
