<svg width="58" height="58" viewBox="0 0 58 58" fill="none" xmlns="http://www.w3.org/2000/svg">
<rect width="58" height="58" rx="10" fill="#0B0C0F"/>
<g clip-path="url(#clip0_2088_182)">
<path d="M38.1368 32.6671L39.5772 28.8769C39.8183 28.2411 39.3542 27.563 38.6732 27.563H35.1475C35.8105 26.4187 36.2203 25.1048 36.2203 23.688V23.6699C38.5828 23.1976 40.0775 22.5134 40.0775 21.7505C40.0775 20.9452 38.4321 20.2308 35.8527 19.7525C35.2982 17.7665 34.2254 15.7685 33.4058 14.7392C32.8333 14.0187 31.8449 13.7947 31.0252 14.2064L29.3618 15.0419C28.8194 15.3144 28.1806 15.3144 27.6382 15.0419L25.9748 14.2064C25.1551 13.7947 24.1667 14.0187 23.5942 14.7392C22.7806 15.7685 21.7018 17.7665 21.1473 19.7525C18.5739 20.2308 16.9286 20.9452 16.9286 21.7505C16.9286 22.5134 18.4232 23.1976 20.7857 23.6699V23.688C20.7857 25.1048 21.1955 26.4187 21.8585 27.563H18.3931C17.7 27.563 17.2359 28.2714 17.5071 28.9132L19.0621 32.5581C16.6453 33.9689 15 36.5663 15 39.5755V42.288C15 43.7835 16.2114 45.0005 17.7 45.0005H39.3C40.7886 45.0005 42 43.7835 42 42.288V39.5755C42 36.645 40.4451 34.1021 38.1368 32.6671ZM25.6071 43.063L23.1 31.438L26.0893 33.3755L27.5357 35.7974L25.6071 43.063ZM31.3929 43.063L29.4643 35.7974L30.9107 33.3755L33.9 31.438L31.3929 43.063ZM33.906 24.9898C33.671 25.7103 33.4842 26.4792 32.9116 27.012C32.3029 27.5751 30.0188 28.3683 29.0545 25.4984C28.8857 24.9898 28.1263 24.9898 27.9516 25.4984C26.927 28.5378 24.5766 27.4601 24.0944 27.012C23.5219 26.4792 23.329 25.7103 23.1 24.9898C23.0518 24.8384 22.7203 24.6447 22.7203 24.6386V23.9847C24.4259 24.2027 26.3967 24.3359 28.506 24.3359C30.6154 24.3359 32.5862 24.2087 34.2917 23.9847V24.6386C34.2857 24.6447 33.9542 24.8324 33.906 24.9898Z" fill="white"/>
</g>
<defs>
<clipPath id="clip0_2088_182">
<rect width="27" height="31" fill="white" transform="translate(15 14)"/>
</clipPath>
</defs>
</svg>
