<svg width="58" height="58" viewBox="0 0 58 58" fill="none" xmlns="http://www.w3.org/2000/svg">
<rect width="58" height="58" rx="10" fill="#A70D4E"/>
<g clip-path="url(#clip0_2088_112)">
<path d="M47.3168 34.0346L44.5575 31.1357C44.4605 31.0338 44.326 30.9766 44.1855 30.9766H42.9855C42.9855 30.976 42.9856 30.9755 42.9856 30.9748V30.3075C42.9856 29.9814 42.7212 29.7166 42.395 29.7166C42.0686 29.7166 41.8044 29.9814 41.8044 30.3075V30.9748C41.8044 30.9755 41.8045 30.976 41.8045 30.9766H34.0491V29.0637L42.2224 20.8904C42.6236 20.4893 42.6236 19.8388 42.2224 19.4377C41.8214 19.0365 41.1709 19.0365 40.7698 19.4377L32.4954 27.712H31.173V30.9766H30.0674V22.0625C30.0674 21.7785 29.8373 21.5486 29.5538 21.5486H28.9026V21.2149C28.9026 20.8887 28.638 20.6245 28.312 20.6245C27.9856 20.6245 27.7214 20.8887 27.7214 21.2149V21.5486H23.1688C23.0222 21.5486 22.8823 21.6117 22.7849 21.7212L17.8834 27.2345H15.2055C15.159 27.2329 15.1129 27.2325 15.0676 27.2325C12.53 27.2325 11.5178 29.0914 11.3285 30.1022L11.1849 30.5904H10.6263C10.2803 30.5904 10 30.8711 10 31.2167V34.276C10 34.5419 10.1663 34.7688 10.4005 34.8595C10.4638 34.8868 10.5325 34.9022 10.6033 34.9022H10.6263H12.2319C12.3728 36.8111 13.9699 38.3216 15.9143 38.3216C17.8586 38.3216 19.4557 36.8111 19.5966 34.9022H36.8944C37.0352 36.8111 38.6323 38.3216 40.5766 38.3216C42.5211 38.3216 44.1182 36.8111 44.259 34.9022H46.9448C47.1503 34.9022 47.3359 34.7796 47.4168 34.591C47.4977 34.402 47.4583 34.183 47.3168 34.0346ZM15.9143 36.4815C14.8922 36.4815 14.0607 35.6501 14.0607 34.6282C14.0607 33.6062 14.8922 32.7748 15.9143 32.7748C16.9362 32.7748 17.7676 33.6062 17.7676 34.6282C17.7676 35.6501 16.9362 36.4815 15.9143 36.4815ZM27.7593 26.8903H21.6254L24.6244 23.3977H27.7593V26.8903ZM40.5765 36.4815C39.5545 36.4815 38.7232 35.6501 38.7232 34.6282C38.7232 33.6062 39.5546 32.7748 40.5765 32.7748C41.5986 32.7748 42.4301 33.6062 42.4301 34.6282C42.4301 35.6501 41.5986 36.4815 40.5765 36.4815Z" fill="white"/>
</g>
<defs>
<clipPath id="clip0_2088_112">
<rect width="37.4583" height="37.4583" fill="white" transform="translate(10 10)"/>
</clipPath>
</defs>
</svg>
